<svg xmlns="http://www.w3.org/2000/svg" viewBox="-8.52 -83.07 555.51 106.59" fill="none" role="img" aria-label="Hailmary"><title>Hailmary</title><g transform="translate(-11.68 -105.94) scale(5.83925)"><path d="M2.75 18Q9.25-2 16.25 10.5" stroke="#ededef" stroke-width="1.5" stroke-linecap="round" fill="none"/><circle cx="19" cy="15.25" r="2.25" fill="#ededef"/></g><path transform="translate(135.87 0)" fill="#ededef" d="M17.8 0L9.2 0L9.2-71L17.8-71L17.8-39.9L53.5-39.9L53.5-71L62.1-71L62.1 0L53.5 0L53.5-31.5L17.8-31.5L17.8 0Z M90.1 1.2L90.1 1.2Q81.9 1.2 77.0-2.6Q72.2-6.4 72.2-13.2L72.2-13.2Q72.2-20 76.2-23.9Q80.2-27.8 88.9-29.4L88.9-29.4L107.7-32.9Q107.7-46.2 95.1-46.2L95.1-46.2Q89.6-46.2 86.4-43.8Q83.2-41.3 82-36.7L82-36.7L73.1-37.4Q74.6-44.9 80.3-49.6Q86.1-54.2 95.1-54.2L95.1-54.2Q105.3-54.2 110.7-48.5Q116.1-42.7 116.1-32.6L116.1-32.6L116.1-10.7Q116.1-7.4 118.9-7.4L118.9-7.4L121-7.4L121 0Q119.8 0.2 117.8 0.2L117.8 0.2Q113.2 0.2 110.8-1.7Q108.5-3.5 107.9-7.7L107.9-7.7L107.8-8.2Q105.8-4.1 100.9-1.5Q96 1.2 90.1 1.2ZM90.9-6.2L90.9-6.2Q98.9-6.2 103.3-10.7Q107.7-15.2 107.7-21.8L107.7-21.8L107.7-25.6L90.5-22.4Q85.1-21.4 83.0-19.4Q81-17.3 81-14L81-14Q81-10.3 83.7-8.3Q86.3-6.2 90.9-6.2Z M136 0L127.6 0L127.6-53L136-53L136 0ZM136.2-61.3L127.4-61.3L127.4-71.1L136.2-71.1L136.2-61.3Z M164.8 0L158.9 0Q154.3 0 151.4-2.4Q148.5-4.8 148.5-10L148.5-10L148.5-71L156.9-71L156.9-10.7Q156.9-7.4 160.2-7.4L160.2-7.4L164.8-7.4L164.8 0Z M180.7 0L172.3 0L172.3-53L180.0-53L180.2-43.7Q182.2-48.6 186.1-51.4Q190-54.2 195.1-54.2L195.1-54.2Q201.1-54.2 205.2-51.3Q209.3-48.4 211-43.1L211-43.1Q212.7-48.4 216.7-51.3Q220.7-54.2 226.5-54.2L226.5-54.2Q235-54.2 239.5-49.0Q244-43.7 244-34.1L244-34.1L244 0L235.6 0L235.6-32.3Q235.6-46.8 224.5-46.8L224.5-46.8Q219-46.8 215.6-42.8Q212.3-38.8 212.3-31.7L212.3-31.7L212.3 0L203.9 0L203.9-31.7Q203.9-38.8 201.4-42.8Q198.9-46.8 193-46.8L193-46.8Q187.5-46.8 184.1-42.8Q180.7-38.8 180.7-31.7L180.7-31.7L180.7 0Z M270.8 1.2L270.8 1.2Q262.6 1.2 257.8-2.6Q252.9-6.4 252.9-13.2L252.9-13.2Q252.9-20 256.9-23.9Q260.9-27.8 269.6-29.4L269.6-29.4L288.4-32.9Q288.4-46.2 275.8-46.2L275.8-46.2Q270.3-46.2 267.1-43.8Q263.9-41.3 262.7-36.7L262.7-36.7L253.8-37.4Q255.3-44.9 261.1-49.6Q266.8-54.2 275.8-54.2L275.8-54.2Q286-54.2 291.4-48.5Q296.8-42.7 296.8-32.6L296.8-32.6L296.8-10.7Q296.8-7.4 299.6-7.4L299.6-7.4L301.7-7.4L301.7 0Q300.5 0.2 298.5 0.2L298.5 0.2Q293.9 0.2 291.6-1.7Q289.2-3.5 288.6-7.7L288.6-7.7L288.5-8.2Q286.5-4.1 281.6-1.5Q276.7 1.2 270.8 1.2ZM271.6-6.2L271.6-6.2Q279.6-6.2 284-10.7Q288.4-15.2 288.4-21.8L288.4-21.8L288.4-25.6L271.2-22.4Q265.8-21.4 263.8-19.4Q261.7-17.3 261.7-14L261.7-14Q261.7-10.3 264.4-8.3Q267-6.2 271.6-6.2Z M317.1 0L308.7 0L308.7-53L316.1-53L316.4-43.2Q319.1-53 329.0-53L329.0-53L334.2-53L334.2-45L329.1-45Q317.1-45 317.1-32L317.1-32L317.1 0Z M350.8 15L343.9 15L343.9 7.6L350 7.6Q352.8 7.6 354.2 6.8Q355.5 5.9 356.2 4L356.2 4L358.1-1L355.2-1L335.8-53L345-53L360.8-8.8L375.9-53L385.1-53L363.6 6.7Q362.1 11 359.1 13Q356.1 15 350.8 15L350.8 15Z"/></svg>
